<svg width="376" height="293" viewBox="0 0 376 293" fill="none" xmlns="http://www.w3.org/2000/svg">
<path d="M295.049 80.3081C318.212 90.8999 320.937 125.101 306.423 148.94C291.731 172.791 260.166 186.386 230.223 197.718C200.269 208.917 172.125 217.973 146.392 213.73C120.669 209.621 97.0013 192.239 88.236 170.669C79.4805 149.233 85.2718 123.634 103.625 110.487C122.145 97.1945 153.06 96.4998 190.49 89.5636C227.93 82.7606 271.709 69.7295 295.049 80.3081Z" fill="#2C854F" fill-opacity="0.2"/>
<path d="M229.185 30.0627L111.962 55.3079L146.714 217.873L263.936 192.628L229.185 30.0627Z" fill="#E0E0E0"/>
<g opacity="0.5">
<path opacity="0.5" d="M227.793 33.2377L114.532 57.6296L148.109 214.7L261.37 190.308L227.793 33.2377Z" fill="url(#paint0_linear)"/>
</g>
<path d="M226.597 34.7044L116.219 58.4753L149.054 212.075L259.432 188.304L226.597 34.7044Z" fill="#FAFAFA"/>
<path d="M197.508 34.0037L142.751 45.7961L145.597 59.1094L200.354 47.317L197.508 34.0037Z" fill="url(#paint1_linear)"/>
<path d="M167.348 26.8966C163.121 27.808 160.446 32.0678 161.376 36.4101C162.306 40.7525 166.484 43.5391 170.703 42.6276C174.923 41.7162 177.606 37.4565 176.676 33.1141C175.746 28.7718 171.576 25.9852 167.348 26.8966ZM170.001 39.3151C169.108 39.529 168.171 39.471 167.31 39.1485C166.45 38.8261 165.705 38.2538 165.169 37.5046C164.634 36.7553 164.333 35.8631 164.305 34.9416C164.277 34.0201 164.523 33.111 165.011 32.3303C165.5 31.5495 166.209 30.9324 167.048 30.5577C167.887 30.1829 168.819 30.0674 169.723 30.2259C170.628 30.3844 171.466 30.8098 172.129 31.4477C172.792 32.0857 173.251 32.9073 173.447 33.808C173.582 34.3968 173.601 35.0066 173.501 35.6025C173.401 36.1983 173.184 36.7685 172.864 37.2802C172.544 37.792 172.126 38.2352 171.635 38.5844C171.144 38.9336 170.588 39.1819 170.001 39.3151Z" fill="url(#paint2_linear)"/>
<path d="M196.809 33.557L143.206 45.1011L145.926 57.8275L199.53 46.2834L196.809 33.557Z" fill="#2C854F"/>
<path d="M167.348 26.8968C165.866 27.216 164.512 27.969 163.457 29.0607C162.401 30.1523 161.692 31.5334 161.419 33.0295C161.146 34.5257 161.321 36.0695 161.922 37.4658C162.522 38.8622 163.522 40.0483 164.795 40.8743C166.067 41.7002 167.555 42.1289 169.071 42.1061C170.586 42.0832 172.06 41.6099 173.308 40.746C174.555 39.8821 175.519 38.6664 176.078 37.2526C176.637 35.8388 176.765 34.2904 176.447 32.8032C176.236 31.8156 175.834 30.8795 175.262 30.0482C174.691 29.2169 173.961 28.5067 173.116 27.9582C172.271 27.4098 171.327 27.0338 170.337 26.8516C169.347 26.6695 168.332 26.6849 167.348 26.8968ZM169.883 38.7646C169.027 38.9488 168.137 38.8743 167.324 38.5506C166.511 38.2268 165.812 37.6683 165.315 36.9457C164.818 36.2231 164.546 35.3689 164.533 34.491C164.52 33.6132 164.767 32.7512 165.242 32.014C165.717 31.2768 166.399 30.6976 167.202 30.3496C168.005 30.0016 168.893 29.9004 169.753 30.0589C170.613 30.2173 171.407 30.6283 172.035 31.2398C172.663 31.8513 173.096 32.6359 173.279 33.4943C173.525 34.6453 173.305 35.8471 172.668 36.8354C172.031 37.8237 171.029 38.5177 169.883 38.7646Z" fill="#2C854F"/>
<path d="M283.639 50.1919H163.749V216.457H283.639V50.1919Z" fill="#E0E0E0"/>
<g opacity="0.5">
<path opacity="0.5" d="M281.615 53.0032H165.776V213.648H281.615V53.0032Z" fill="url(#paint3_linear)"/>
</g>
<path d="M280.139 54.1873H167.25V211.283H280.139V54.1873Z" fill="white"/>
<path d="M251.843 47.375H195.84V60.9913H251.843V47.375Z" fill="url(#paint4_linear)"/>
<path d="M223.842 34.0835C219.519 34.0835 216.013 37.6851 216.013 42.1294C216.013 46.5736 219.519 50.1753 223.842 50.1753C228.166 50.1753 231.672 46.5736 231.672 42.1294C231.672 37.6851 228.166 34.0835 223.842 34.0835ZM223.842 46.7719C222.923 46.7938 222.018 46.5402 221.243 46.0436C220.468 45.5469 219.859 44.8298 219.492 43.9836C219.125 43.1375 219.017 42.2008 219.183 41.2931C219.349 40.3854 219.781 39.5479 220.423 38.8876C221.065 38.2273 221.889 37.774 222.789 37.5858C223.689 37.3976 224.625 37.4828 225.476 37.8307C226.328 38.1787 227.057 38.7734 227.57 39.5391C228.083 40.3047 228.358 41.2065 228.358 42.1294C228.367 43.3423 227.897 44.5093 227.05 45.3752C226.204 46.241 225.051 46.7353 223.842 46.7498V46.7719Z" fill="url(#paint5_linear)"/>
<path d="M251.254 46.791H196.43V59.8071H251.254V46.791Z" fill="#2C854F"/>
<path d="M223.842 34.0835C222.327 34.0835 220.846 34.5345 219.585 35.3796C218.325 36.2247 217.343 37.4258 216.763 38.8311C216.183 40.2364 216.032 41.7827 216.327 43.2745C216.623 44.7664 217.353 46.1367 218.424 47.2123C219.496 48.2878 220.861 49.0203 222.348 49.3171C223.834 49.6138 225.375 49.4615 226.775 48.8794C228.175 48.2973 229.371 47.3116 230.213 46.0469C231.055 44.7822 231.505 43.2952 231.505 41.7742C231.505 39.7345 230.697 37.7783 229.26 36.336C227.823 34.8938 225.875 34.0835 223.842 34.0835ZM223.842 46.2129C222.968 46.2118 222.114 45.9508 221.388 45.4629C220.662 44.975 220.096 44.282 219.762 43.4715C219.428 42.661 219.34 41.7692 219.51 40.9089C219.681 40.0485 220.101 39.2581 220.719 38.6375C221.337 38.0168 222.123 37.5937 222.98 37.4217C223.837 37.2496 224.726 37.3363 225.534 37.6707C226.342 38.0051 227.033 38.5723 227.52 39.3007C228.007 40.0291 228.268 40.886 228.27 41.7632C228.27 42.3463 228.155 42.9236 227.932 43.4622C227.71 44.0008 227.383 44.49 226.972 44.902C226.561 45.3139 226.073 45.6405 225.536 45.8631C224.999 46.0857 224.423 46.1998 223.842 46.1991V46.2129Z" fill="#2C854F"/>
<defs>
<linearGradient id="paint0_linear" x1="204.738" y1="202.504" x2="170.923" y2="45.4854" gradientUnits="userSpaceOnUse">
<stop stop-color="#808080" stop-opacity="0.25"/>
<stop offset="0.54" stop-color="#808080" stop-opacity="0.12"/>
<stop offset="1" stop-color="#808080" stop-opacity="0.1"/>
</linearGradient>
<linearGradient id="paint1_linear" x1="30216.9" y1="-3919.27" x2="30075.2" y2="-4577.4" gradientUnits="userSpaceOnUse">
<stop stop-color="#808080" stop-opacity="0.25"/>
<stop offset="0.54" stop-color="#808080" stop-opacity="0.12"/>
<stop offset="1" stop-color="#808080" stop-opacity="0.1"/>
</linearGradient>
<linearGradient id="paint2_linear" x1="8889.27" y1="467.095" x2="8691.54" y2="-451.049" gradientUnits="userSpaceOnUse">
<stop stop-color="#808080" stop-opacity="0.25"/>
<stop offset="0.54" stop-color="#808080" stop-opacity="0.12"/>
<stop offset="1" stop-color="#808080" stop-opacity="0.1"/>
</linearGradient>
<linearGradient id="paint3_linear" x1="55351.3" y1="114196" x2="55351.3" y2="20474.2" gradientUnits="userSpaceOnUse">
<stop stop-color="#808080" stop-opacity="0.25"/>
<stop offset="0.54" stop-color="#808080" stop-opacity="0.12"/>
<stop offset="1" stop-color="#808080" stop-opacity="0.1"/>
</linearGradient>
<linearGradient id="paint4_linear" x1="26906" y1="2173.29" x2="26906" y2="1499.96" gradientUnits="userSpaceOnUse">
<stop stop-color="#808080" stop-opacity="0.25"/>
<stop offset="0.54" stop-color="#808080" stop-opacity="0.12"/>
<stop offset="1" stop-color="#808080" stop-opacity="0.1"/>
</linearGradient>
<linearGradient id="paint5_linear" x1="10658.5" y1="2872.51" x2="10658.5" y2="1932.11" gradientUnits="userSpaceOnUse">
<stop stop-color="#808080" stop-opacity="0.25"/>
<stop offset="0.54" stop-color="#808080" stop-opacity="0.12"/>
<stop offset="1" stop-color="#808080" stop-opacity="0.1"/>
</linearGradient>
</defs>
</svg>
