<svg width="95" height="95" viewBox="0 0 95 95" fill="none" xmlns="http://www.w3.org/2000/svg">
<path fill-rule="evenodd" clip-rule="evenodd" d="M0 91.0115L91.0085 0H95L0 95V91.0115ZM76.9485 0H80.94L0 80.94V76.9515L76.9485 0ZM62.6985 0H66.69L0 66.69V62.7015L62.6985 0ZM48.4485 0H52.44L0 52.44V48.4515L48.4485 0ZM34.1985 0H38.19L0 38.1905V34.2009L34.1985 0ZM19.7605 0H23.75L0 23.75V19.7609L19.7605 0ZM5.6985 0H9.69L0 9.69045V5.7009L5.6985 0ZM11.2091 95L95 11.2096V15.2009L15.1985 95H11.2091ZM26.41 95L95 26.4105V30.4L30.4 95H26.41ZM41.7035 95L95 41.7041V45.6958L45.6954 95H41.7035ZM56.9046 95L95 56.9043V60.8943L60.8941 95H56.9046ZM72.2935 95L95 72.2957V76.2858L76.285 95H72.2935ZM87.4945 95L95 87.4942V91.4843L91.4843 95H87.4945Z" fill="#A43DE7" fill-opacity="0.25"/>
</svg>
