<svg width="55" height="55" viewBox="0 0 55 55" fill="none" xmlns="http://www.w3.org/2000/svg">
<rect width="55" height="55" rx="5" fill="white" fill-opacity="0.05"/>
<path d="M13.1084 21.9563L13.0018 22.0293C12.9152 22.11 12.8647 22.2208 12.8615 22.3376C12.8583 22.4544 12.9025 22.5677 12.9846 22.6528L14.1243 23.823C14.1873 23.8873 14.269 23.9311 14.3584 23.9485C14.4477 23.966 14.5405 23.9561 14.6239 23.9204C15.8888 23.3786 17.2564 23.1023 18.638 23.1096C20.0195 23.1169 21.384 23.4075 22.6428 23.9626C22.7229 23.9976 22.8119 24.0087 22.8984 23.9945C22.985 23.9802 23.0653 23.9413 23.1291 23.8825L24.3504 22.7513C24.4026 22.7032 24.4422 22.6436 24.466 22.5776C24.4898 22.5115 24.4971 22.4409 24.4874 22.3715C24.4776 22.3022 24.451 22.2361 24.4098 22.1787C24.3686 22.1214 24.314 22.0744 24.2505 22.0418C22.5304 21.1762 20.6255 20.7175 18.6899 20.7026C16.7543 20.6878 14.8423 21.1172 13.1084 21.9563Z" fill="#82BFAB"/>
<path d="M10.2181 18.2358L10.1399 18.2937C10.0533 18.3746 10.003 18.4855 10.0001 18.6024C9.99722 18.7192 10.0419 18.8324 10.1243 18.9172L11.2462 20.0706C11.3146 20.1405 11.405 20.186 11.5029 20.2C11.6009 20.214 11.7009 20.1957 11.7869 20.148C13.9158 18.9774 16.324 18.3758 18.7679 18.4044C21.2118 18.4329 23.6047 19.0904 25.7041 20.3104C25.7868 20.3591 25.8835 20.3801 25.9796 20.3703C26.0757 20.3606 26.1659 20.3205 26.2365 20.2563L27.4217 19.1603C27.4721 19.1145 27.5109 19.0578 27.535 18.9949C27.5591 18.932 27.5678 18.8644 27.5605 18.7976C27.5538 18.7313 27.5317 18.6673 27.4959 18.6105C27.4601 18.5537 27.4116 18.5055 27.354 18.4696C22.1851 15.2628 15.4603 15.1729 10.2181 18.2358Z" fill="#616E7D"/>
<path d="M35.8137 34.76H14.4233V35.836H35.8137V34.76Z" fill="white"/>
<path d="M42.9876 36.0221H37.8071V36.4037H42.9876V36.0221Z" fill="white"/>
<path d="M40.425 33.6531H37.8081V34.991H40.425V33.6531Z" fill="#82BFAB"/>
<path d="M42.9883 33.6531H40.4253V34.991H42.9883V33.6531Z" fill="#AAD4C8"/>
<path d="M13.1361 31.5499C12.8302 31.5499 12.5368 31.6683 12.3204 31.8791C12.104 32.0899 11.9822 32.3758 11.9819 32.6741V37.9241C11.9819 38.0719 12.0118 38.2182 12.0698 38.3547C12.1278 38.4911 12.2128 38.6152 12.32 38.7196C12.4272 38.824 12.5544 38.9069 12.6944 38.9634C12.8345 39.0199 12.9845 39.0489 13.1361 39.0488H43.8471C43.9986 39.0488 44.1486 39.0197 44.2885 38.9632C44.4284 38.9067 44.5556 38.8238 44.6626 38.7194C44.7697 38.6149 44.8546 38.4909 44.9125 38.3545C44.9705 38.218 45.0002 38.0718 45.0001 37.9241V32.6741C45.0001 32.3759 44.8787 32.09 44.6624 31.8792C44.4462 31.6683 44.1529 31.5499 43.8471 31.5499H19.2026V28.5092C19.6403 28.378 20.0153 28.098 20.2593 27.7201C20.5032 27.3422 20.6 26.8915 20.532 26.4499C20.464 26.0084 20.2357 25.6053 19.8886 25.3139C19.5415 25.0225 19.0987 24.8623 18.6408 24.8623C18.1828 24.8623 17.74 25.0225 17.3929 25.3139C17.0459 25.6053 16.8176 26.0084 16.7495 26.4499C16.6815 26.8915 16.7783 27.3422 17.0222 27.7201C17.2662 28.098 17.6412 28.378 18.079 28.5092V31.5499H13.1361ZM37.8084 33.6532H42.9883V34.9922H37.8084V33.6532ZM37.8084 36.0222H42.9883V36.4038H37.8073L37.8084 36.0222ZM17.646 26.7209C17.6461 26.5256 17.7056 26.3347 17.8169 26.1724C17.9283 26.01 18.0865 25.8835 18.2716 25.8088C18.4567 25.7341 18.6604 25.7146 18.8569 25.7527C19.0533 25.7908 19.2338 25.8849 19.3755 26.023C19.5171 26.1611 19.6136 26.3371 19.6527 26.5286C19.6918 26.7202 19.6718 26.9188 19.5952 27.0992C19.5186 27.2797 19.3888 27.434 19.2223 27.5426C19.0558 27.6511 18.86 27.7091 18.6596 27.7092C18.3908 27.7092 18.133 27.6051 17.9429 27.4198C17.7528 27.2344 17.646 26.9831 17.646 26.7209ZM35.8138 34.76V35.8355H14.4234V34.76H35.8138Z" fill="#616E7D"/>
<path d="M17.646 26.7209C17.6459 26.9162 17.7052 27.1072 17.8164 27.2697C17.9277 27.4322 18.0858 27.5589 18.2709 27.6338C18.456 27.7086 18.6597 27.7283 18.8562 27.6903C19.0528 27.6523 19.2333 27.5583 19.3751 27.4202C19.5169 27.2822 19.6135 27.1062 19.6527 26.9146C19.6919 26.7231 19.6719 26.5244 19.5953 26.3439C19.5187 26.1634 19.389 26.009 19.2224 25.9004C19.0559 25.7918 18.86 25.7337 18.6597 25.7336C18.3911 25.7338 18.1335 25.8378 17.9434 26.0229C17.7534 26.208 17.6464 26.459 17.646 26.7209Z" fill="#AAD4C8"/>
</svg>
