<svg width="38" height="48" viewBox="0 0 38 48" fill="none" xmlns="http://www.w3.org/2000/svg">
<path d="M37.8878 0V34.2371L18.9439 47.7813L0 34.2371V27.4916L2.21412 26.5253L0 25.1186V0H37.8878ZM36.6754 1.20774H1.21241V24.4408L4.79393 26.715L1.21241 28.2769V33.6018L18.9439 46.2716L36.6754 33.6018V1.20774Z" fill="white"/>
<path d="M35.1601 2.6419V11.3506L29.9903 13.6069V8.00112H25.3375V33.3466L29.9903 30.0186V19.2305L32.2219 18.4159L26.4679 18.0943L35.1601 14.2571V32.8322L20.1677 43.5542V2.6419H35.1601ZM17.6448 2.6419V11.0076L12.475 13.2514V8.00112H7.82215V18.1801L12.475 16.1614V16.1561L17.6448 13.9141V43.5542L2.65234 32.8322V29.2111L7.82215 26.9549V30.0186L12.475 33.3466V23.0837L14.8169 21.1151L10.0004 23.1016L9.93144 23.132L7.82215 24.0413V24.052L5.1597 25.2113L2.65234 23.6179V2.6419H17.6448Z" fill="#34D374"/>
</svg>
