<svg width="437" height="113" viewBox="0 0 437 113" fill="none" xmlns="http://www.w3.org/2000/svg">
<path fill-rule="evenodd" clip-rule="evenodd" d="M33.1217 45.0829H-18.8826L7.11952 0L33.1217 45.0829ZM106.63 45.0829H54.6254L80.6275 0L106.63 45.0829ZM180.131 45.0829H128.126L154.129 0L180.131 45.0829ZM253.639 45.0829H201.634L227.637 0L253.639 45.0829ZM327.14 45.0829H275.135L301.138 0L327.14 45.0829ZM400.648 45.0829H348.643L374.646 0L400.648 45.0829ZM69.4739 113H17.4696L43.4718 67.9171L69.4739 113ZM142.975 113H90.9707L116.973 67.9171L142.975 113ZM216.483 113H164.479L190.481 67.9171L216.483 113ZM289.984 113H237.98L263.982 67.9171L289.984 113ZM363.492 113H311.488L337.49 67.9171L363.492 113ZM436.993 113H384.989L410.991 67.9171L436.993 113ZM0.00430298 113H-52L-25.9978 67.9171L0.00430298 113Z" fill="black" fill-opacity="0.1"/>
</svg>
