<svg width="75" height="11" viewBox="0 0 75 11" fill="none" xmlns="http://www.w3.org/2000/svg">
<g clip-path="url(#clip0)">
<path fill-rule="evenodd" clip-rule="evenodd" d="M71.6886 4.70001C71.3086 5.15971 70.8834 5.29598 70.3158 4.83792L65.3002 0.567616C64.8733 0.199855 64.4481 -0.25984 64.0212 0.245831L60.2361 4.6097C59.8577 5.06776 59.3371 5.29599 58.8633 4.74599L53.846 0.475686C53.3739 0.107925 52.8532 -0.25984 52.428 0.245831L48.6412 4.6097C48.2628 5.06776 47.7422 5.29599 47.2684 4.74599L42.2528 0.475686C41.8259 0.107925 41.3053 -0.25984 40.8332 0.245831L36.6747 4.9939C36.3783 5.18106 36.0435 5.16792 35.6334 4.83792L30.6177 0.567616C30.1909 0.199855 29.7656 -0.25984 29.3387 0.245831L25.5553 4.6097C25.1752 5.06776 24.6546 5.29599 24.1825 4.74599L19.1652 0.475686C18.6914 0.107925 18.1708 -0.25984 17.7455 0.245831L13.9604 4.6097C13.5804 5.06776 13.0597 5.29599 12.5876 4.74599L7.57198 0.475686C7.14509 0.107925 6.62444 -0.25984 6.15067 0.245831L0 7.27106V9.93404L3.21763 6.21538C3.64285 5.71135 4.25725 6.12344 4.63727 6.44524L9.65458 10.7155C10.1752 11.1752 10.6004 10.9914 10.9788 10.5776L14.8125 6.21538C15.1908 5.75732 15.8521 6.12344 16.1836 6.44524L21.1992 10.7155C21.7684 11.1752 22.1936 11.0357 22.572 10.5776L26.3588 6.21538C26.784 5.71135 27.4001 6.12344 27.7768 6.44524L32.7941 10.7155C33.3147 11.1752 33.74 10.9914 34.12 10.5776L38.1177 6.07748C38.5178 5.87225 38.9983 6.17434 39.3181 6.44524L44.3354 10.7155C44.856 11.1752 45.2812 10.9914 45.6613 10.5776L49.4933 6.21538C49.8717 5.75732 50.5346 6.12344 50.8661 6.44524L55.8817 10.7155C56.4492 11.1752 56.8744 11.0357 57.2545 10.5776L61.0396 6.21538C61.4648 5.71135 62.0826 6.12344 62.4593 6.44524L67.4766 10.7155C67.9972 11.1752 68.4224 10.9914 68.8008 10.5776L75 3.59838V0.98135L71.6886 4.70001Z" fill="#993FD3"/>
</g>
<defs>
<clipPath id="clip0">
<rect width="75" height="11" fill="white"/>
</clipPath>
</defs>
</svg>
